<?xml version="1.0" encoding="UTF-8"?>
<svg id="Layer_2" data-name="Layer 2" xmlns="http://www.w3.org/2000/svg" viewBox="0 0 67.72 63.01">
  <g id="Layer_1-2" data-name="Layer 1">
    <g>
      <path d="M38.35,33.59c0,.46.55.69.88.36l10.89-10.82c3.72-2.69,8.02,1.8,5.18,5.49l-19,19c-1.61,1.24-3.53,1.13-5.02-.24L12.74,28.86c-3.22-3.57.97-8.48,4.94-5.73l10.89,10.82c.32.32.88.09.88-.36V3.73c0-.14.4-1.19.51-1.4,1.59-3.1,6.3-3.11,7.89,0,.11.21.51,1.26.51,1.4v29.86Z"/>
      <path d="M3.96,47.27c1.22,0,2.79.85,3.35,1.97.93,1.89-.4,3.84,1.38,5.78.98,1.07,2.13,1.16,3.49,1.28h43.59c1.8-.12,3.24-.58,4.03-2.33.6-1.34.18-2.41.38-3.75.56-3.78,6.71-3.7,7.4-.32.23,1.14.17,5.99.02,7.26-.16,1.37-.87,2.6-1.86,3.57-1.37,1.35-3.27,2.02-5.2,2.07-17.63.45-35.35.08-53.01.16-.62,0-1.24-.06-1.84-.2C-.13,61.37-.31,55.89.17,50.48c.18-1.97,1.88-3.21,3.79-3.21Z"/>
    </g>
  </g>
</svg>