<?xml version="1.0" encoding="UTF-8"?>
<svg id="Layer_2" data-name="Layer 2" xmlns="http://www.w3.org/2000/svg" viewBox="0 0 1077.71 840.75">
  <defs>
    <style>
      .cls-1 {
        fill: none;
        stroke: #000;
        stroke-linecap: round;
        stroke-linejoin: round;
        stroke-width: 66.84px;
      }
    </style>
  </defs>
  <g id="Layer_1-2" data-name="Layer 1">
    <g>
      <path d="M401.25,116.42c-7.39.82-12.71,7.48-11.89,14.87l14.35,128.99,1.82,14.94c.91,7.44-4.43,14.18-11.87,15.01l-36.57,4.07c-7.44.83-14.13-4.58-14.88-12.03l-1.5-14.97-14.35-128.99c-.82-7.39-7.48-12.71-14.87-11.89l-32.01,3.56c-7.39.82-14.05-4.5-14.87-11.89l-2.11-18.98c-.82-7.39,4.5-14.05,11.89-14.87l153.78-17.11c7.39-.82,14.05,4.5,14.87,11.89l2.11,18.98c.82,7.39-4.5,14.05-11.89,14.87l-32.01,3.56Z"/>
      <path d="M540.62,245.04l-6.47-58.14c-.27-2.39-1.17-4.67-2.61-6.6l-85.99-114.51-.07-.61,62.63-6.97c5.06-.56,10,1.78,12.78,6.05l42.1,64.82.61-.07,26.83-72.49c1.77-4.77,6.08-8.14,11.14-8.71l50.51-5.62.07.61-54.34,130.25c-.88,2.11-1.21,4.4-.96,6.67l6.49,58.33,1.82,14.94c.91,7.44-4.43,14.18-11.87,15.01l-36.27,4.03c-7.44.83-14.13-4.58-14.88-12.03l-1.5-14.97Z"/>
      <path d="M762.93,170.02c-7.39.82-12.71,7.48-11.89,14.87l4.04,36.3,1.82,14.94c.91,7.44-4.43,14.18-11.87,15.01l-36.26,4.03c-7.44.83-14.13-4.58-14.88-12.03l-1.5-14.97-17.76-159.64-1.82-14.93c-.91-7.44,4.43-14.18,11.87-15.01l90.38-10.06c40.89-4.55,86.5,2.95,92.74,58.99,5.97,53.62-30.69,74.25-70.67,78.7l-34.18,3.8ZM743.17,114.2c.82,7.39,7.48,12.71,14.87,11.89l19.03-2.12c18.17-2.02,31.33-7.78,28.94-29.29-2.46-22.11-17.03-23.56-34.6-21.6l-19.03,2.12c-7.39.82-12.71,7.48-11.89,14.87l2.68,24.13Z"/>
      <path d="M1028.74,131.85l-51.7,5.75c-7.39.82-12.71,7.48-11.89,14.87l1.57,14.14c.82,7.39,7.48,12.71,14.87,11.89l69.87-7.77c7.39-.82,14.05,4.5,14.87,11.89l2.11,18.98c.82,7.39-4.5,14.05-11.89,14.87l-132.74,14.77c-7.44.83-14.13-4.58-14.88-12.03l-1.5-14.97-17.76-159.64-1.82-14.93c-.91-7.44,4.43-14.18,11.87-15.01L1030.64.08c7.39-.82,14.05,4.5,14.87,11.89l2.11,18.98c.82,7.39-4.5,14.05-11.89,14.87l-68.05,7.57c-7.39.82-12.71,7.48-11.89,14.87l1.3,11.71c.82,7.39,7.48,12.71,14.87,11.89l51.7-5.75c7.39-.82,14.05,4.5,14.87,11.89l2.11,18.98c.82,7.39-4.5,14.05-11.89,14.87Z"/>
    </g>
    <g>
      <path d="M146.94,473.62l6.48-160.49.45-15.04c.22-7.49,6.51-13.35,14-13.05l59.19,2.39c5.67.23,10.58,3.99,12.29,9.39l33.39,105.62.61.02,41.22-102.55c2.12-5.28,7.34-8.66,13.03-8.43l59.14,2.39c7.48.3,13.28,6.66,12.9,14.14l-.77,15.03-6.48,160.49-.45,15.04c-.22,7.49-6.51,13.35-14,13.05l-35.24-1.42c-7.48-.3-13.28-6.66-12.9-14.14l.77-15.03,3.59-88.92,1.45-20.68-.61-.02-48.72,127.35c-2.06,5.4-7.34,8.87-13.12,8.64l-19.66-.79c-5.77-.23-10.75-4.12-12.38-9.67l-38.29-130.86-.61-.02-.23,20.73-3.59,88.92-.45,15.04c-.22,7.49-6.51,13.35-14,13.05l-24.89-1.01c-7.48-.3-13.28-6.66-12.9-14.14l.77-15.03Z"/>
      <path d="M455.94,514.77l-28.35-1.15c-9.28-.37-15.4-9.81-11.96-18.43l74.97-188.13c2.11-5.3,7.34-8.7,13.05-8.47l46.65,1.88c5.75.23,10.71,4.09,12.36,9.6l57.68,193.48c2.64,8.85-4.22,17.67-13.44,17.3l-38.6-1.56c-6.02-.24-11.15-4.46-12.55-10.32l-5.43-22.7c-1.4-5.86-6.53-10.07-12.55-10.32l-47.23-1.91c-5.89-.24-11.25,3.38-13.22,8.93l-8.14,22.84c-1.98,5.55-7.34,9.17-13.22,8.93ZM513.98,432.01l6.19.25c8.87.36,15.66-7.82,13.66-16.48l-12.65-54.86-.61-.02-18.75,53.19c-3.01,8.54,3.1,17.56,12.15,17.93Z"/>
      <path d="M763.19,518.41l-21.88-66.92c-1.75-5.34-6.63-9.04-12.25-9.27l-4.92-.2c-7.43-.3-13.69,5.48-13.99,12.91l-1.67,41.37-.45,15.04c-.22,7.49-6.51,13.35-14,13.05l-36.46-1.47c-7.48-.3-13.28-6.66-12.9-14.14l.77-15.03,6.48-160.49.45-15.04c.22-7.49,6.51-13.35,14-13.05l91.77,3.71c40.2,1.62,82.92,16.47,80.81,68.54-1.05,25.9-12.99,43.14-30.43,53.4-5.76,3.38-8.14,10.49-5.61,16.67l33.56,82.04-.02.61-61-2.46c-5.62-.23-10.5-3.92-12.25-9.27ZM713.01,384.18c-.3,7.43,5.48,13.69,12.91,13.99l19.74.8c15.84.64,29.48-4.91,30.17-21.96.74-18.27-12.45-23.99-30.12-24.7l-17.92-.72c-7.43-.3-13.69,5.48-13.99,12.91l-.8,19.69Z"/>
    </g>
    <g>
      <path d="M352.63,746.11l-9.14-160.36-1.02-15.01c-.51-7.47,5.19-13.92,12.67-14.35l36.43-2.08c7.48-.43,13.87,5.33,14.21,12.82l.7,15.03,3.26,57.21.61-.03,58.01-84.18c2.36-3.42,6.17-5.56,10.32-5.8l63.71-3.63.03.61-55.09,72.96c-3.25,4.31-3.62,10.15-.92,14.83l73.83,128.25.03.61-61.31,3.49c-5.28.3-10.25-2.52-12.7-7.21l-42.58-81.53-.61.03-25.99,34.65c-1.91,2.54-2.85,5.67-2.67,8.84l1.21,21.26,1.02,15.01c.51,7.47-5.19,13.92-12.67,14.35l-36.43,2.08c-7.48.43-13.87-5.33-14.21-12.82l-.7-15.03Z"/>
      <path d="M701.3,667.62l-51.93,2.96c-7.42.42-13.1,6.78-12.67,14.21l.81,14.2c.42,7.42,6.78,13.1,14.21,12.67l70.19-4c7.42-.42,13.78,5.25,14.21,12.67l1.09,19.07c.42,7.42-5.25,13.78-12.67,14.21l-133.34,7.6c-7.48.43-13.87-5.33-14.21-12.82l-.7-15.03-9.14-160.36-1.02-15.01c-.51-7.47,5.19-13.92,12.67-14.35l131.51-7.5c7.42-.42,13.78,5.25,14.21,12.67l1.09,19.07c.42,7.42-5.25,13.78-12.67,14.21l-68.36,3.9c-7.42.42-13.1,6.78-12.67,14.21l.67,11.76c.42,7.42,6.78,13.1,14.21,12.67l51.93-2.96c7.42-.42,13.78,5.25,14.21,12.67l1.09,19.07c.42,7.42-5.25,13.78-12.67,14.21Z"/>
      <path d="M878.84,572.63c-7.42.42-13.1,6.78-12.67,14.21l7.39,129.58,1.02,15.01c.51,7.47-5.19,13.92-12.67,14.35l-36.73,2.09c-7.48.43-13.87-5.33-14.21-12.82l-.7-15.03-7.39-129.58c-.42-7.42-6.78-13.1-14.21-12.67l-32.15,1.83c-7.42.42-13.78-5.25-14.21-12.67l-1.09-19.07c-.42-7.42,5.25-13.78,12.67-14.21l154.48-8.8c7.42-.42,13.78,5.25,14.21,12.67l1.09,19.07c.42,7.42-5.25,13.78-12.67,14.21l-32.15,1.83Z"/>
    </g>
    <polyline class="cls-1" points="33.42 253.14 216.47 807.33 888.4 807.33 1044.29 249.71"/>
  </g>
</svg>